<?xml version="1.0" encoding="UTF-8" standalone="no"?>
<!-- Created with Inkscape (http://www.inkscape.org/) -->

<svg
   width="630"
   height="500"
   viewBox="0 0 166.68749 132.29167"
   version="1.1"
   id="svg382"
   inkscape:version="1.2.2 (b0a8486541, 2022-12-01)"
   sodipodi:docname="cover_image_630x500.svg"
   inkscape:export-filename="cover_image_630x500.png"
   inkscape:export-xdpi="96"
   inkscape:export-ydpi="96"
   xmlns:inkscape="http://www.inkscape.org/namespaces/inkscape"
   xmlns:sodipodi="http://sodipodi.sourceforge.net/DTD/sodipodi-0.dtd"
   xmlns="http://www.w3.org/2000/svg"
   xmlns:svg="http://www.w3.org/2000/svg">
  <sodipodi:namedview
     id="namedview384"
     pagecolor="#505050"
     bordercolor="#eeeeee"
     borderopacity="1"
     inkscape:showpageshadow="0"
     inkscape:pageopacity="0"
     inkscape:pagecheckerboard="0"
     inkscape:deskcolor="#505050"
     inkscape:document-units="mm"
     showgrid="false"
     inkscape:zoom="0.65764502"
     inkscape:cx="380.14429"
     inkscape:cy="328.44467"
     inkscape:window-width="1366"
     inkscape:window-height="703"
     inkscape:window-x="0"
     inkscape:window-y="37"
     inkscape:window-maximized="1"
     inkscape:current-layer="layer2" />
  <defs
     id="defs379">
    <inkscape:path-effect
       effect="tiling"
       id="path-effect2983"
       is_visible="true"
       lpeversion="1"
       unit="px"
       seed="1;1"
       lpesatellites=""
       num_rows="1"
       num_cols="3"
       gapx="0"
       gapy="0"
       offset="0"
       offset_type="false"
       scale="0"
       rotate="0"
       mirrorrowsx="false"
       mirrorrowsy="false"
       mirrorcolsx="false"
       mirrorcolsy="false"
       mirrortrans="false"
       shrink_interp="false"
       split_items="false"
       link_styles="false"
       interpolate_scalex="false"
       interpolate_scaley="true"
       interpolate_rotatex="false"
       interpolate_rotatey="true"
       random_scale="false"
       random_rotate="false"
       random_gap_y="false"
       random_gap_x="false"
       transformorigin="matrix(2.0058357,0,0,2.0058357,6.6818915,-62.539925)" />
    <inkscape:path-effect
       effect="tiling"
       id="path-effect2959"
       is_visible="true"
       lpeversion="1"
       unit="px"
       seed="1;624777466"
       lpesatellites="#path3021 | #path3023 | #path3025 | #path3027 | #path3029"
       num_rows="1"
       num_cols="6"
       gapx="16"
       gapy="0"
       offset="0"
       offset_type="false"
       scale="0"
       rotate="0"
       mirrorrowsx="false"
       mirrorrowsy="false"
       mirrorcolsx="false"
       mirrorcolsy="false"
       mirrortrans="false"
       shrink_interp="false"
       split_items="true"
       link_styles="false"
       interpolate_scalex="false"
       interpolate_scaley="true"
       interpolate_rotatex="false"
       interpolate_rotatey="true"
       random_scale="false"
       random_rotate="false"
       random_gap_y="false"
       random_gap_x="false"
       transformorigin="matrix(2.4640155,0,0,2.4640155,-52.783884,-91.028206)" />
    <inkscape:path-effect
       effect="clone_original"
       linkeditem=""
       id="path-effect2957"
       is_visible="true"
       lpeversion="1"
       method="d"
       attributes=""
       css_properties=""
       allow_transforms="true" />
    <inkscape:path-effect
       effect="clone_original"
       linkeditem=""
       id="path-effect2955"
       is_visible="true"
       lpeversion="1"
       method="d"
       attributes=""
       css_properties=""
       allow_transforms="true" />
    <inkscape:path-effect
       effect="offset"
       id="path-effect2951"
       is_visible="true"
       lpeversion="1.2"
       linejoin_type="miter"
       unit="mm"
       offset="1"
       miter_limit="4"
       attempt_force_join="false"
       update_on_knot_move="true" />
  </defs>
  <g
     inkscape:label="Слой 1"
     inkscape:groupmode="layer"
     id="layer1">
    <rect
       style="fill:#1c1c1c;fill-opacity:1;stroke-width:0.940009"
       id="rect555"
       width="166.6875"
       height="132.29167"
       x="0"
       y="0"
       ry="2.8147163" />
  </g>
  <g
     inkscape:groupmode="layer"
     id="layer2"
     inkscape:label="Слой 2"
     transform="matrix(0.77999619,0,0,0.77999619,0.79415327,22.870096)">
    <path
       style="fill:#f45a65;fill-opacity:1;stroke-width:0.524818"
       id="circle971"
       transform="matrix(1.695979,0,0,1.695979,-23.854409,-31.046564)"
       inkscape:path-effect="#path-effect2959"
       sodipodi:type="arc"
       sodipodi:cx="33.69804"
       sodipodi:cy="62.177078"
       sodipodi:rx="7.8667221"
       sodipodi:ry="7.8667221"
       d="m 41.564762,62.177078 c 0,4.344671 -3.522051,7.866722 -7.866722,7.866722 -4.344671,0 -7.866722,-3.522051 -7.866722,-7.866722 0,-4.34467 3.522051,-7.866722 7.866722,-7.866722 4.344671,0 7.866722,3.522052 7.866722,7.866722 z"
       class="UnoptimicedTransforms" />
    <path
       transform="matrix(1.695979,0,0,1.695979,5.7429804,-31.046564)"
       style="fill:#f47065;fill-opacity:1;stroke-width:0.524818"
       class="UnoptimicedTransforms"
       id="path3021"
       d="m 41.564762,62.177078 c 0,4.344671 -3.522051,7.866722 -7.866722,7.866722 -4.344671,0 -7.866722,-3.522051 -7.866722,-7.866722 0,-4.34467 3.522051,-7.866722 7.866722,-7.866722 4.344671,0 7.866722,3.522052 7.866722,7.866722 z" />
    <path
       transform="matrix(1.695979,0,0,1.695979,35.34037,-31.046564)"
       style="fill:#f48965;fill-opacity:1;stroke-width:0.524818"
       class="UnoptimicedTransforms"
       id="path3023"
       d="m 41.564762,62.177078 c 0,4.344671 -3.522051,7.866722 -7.866722,7.866722 -4.344671,0 -7.866722,-3.522051 -7.866722,-7.866722 0,-4.34467 3.522051,-7.866722 7.866722,-7.866722 4.344671,0 7.866722,3.522052 7.866722,7.866722 z" />
    <path
       transform="matrix(1.695979,0,0,1.695979,64.937759,-31.046564)"
       style="fill:#f4b365;fill-opacity:1;stroke-width:0.524818"
       class="UnoptimicedTransforms"
       id="path3025"
       d="m 41.564762,62.177078 c 0,4.344671 -3.522051,7.866722 -7.866722,7.866722 -4.344671,0 -7.866722,-3.522051 -7.866722,-7.866722 0,-4.34467 3.522051,-7.866722 7.866722,-7.866722 4.344671,0 7.866722,3.522052 7.866722,7.866722 z" />
    <path
       transform="matrix(1.695979,0,0,1.695979,94.535149,-31.046564)"
       style="fill:#a6b365;fill-opacity:1;stroke-width:0.524818"
       class="UnoptimicedTransforms"
       id="path3027"
       d="m 41.564762,62.177078 c 0,4.344671 -3.522051,7.866722 -7.866722,7.866722 -4.344671,0 -7.866722,-3.522051 -7.866722,-7.866722 0,-4.34467 3.522051,-7.866722 7.866722,-7.866722 4.344671,0 7.866722,3.522052 7.866722,7.866722 z" />
    <path
       transform="matrix(1.695979,0,0,1.695979,124.13254,-31.046564)"
       style="fill:#a6ff65;fill-opacity:1;stroke-width:0.524818"
       class="UnoptimicedTransforms"
       id="path3029"
       d="m 41.564762,62.177078 c 0,4.344671 -3.522051,7.866722 -7.866722,7.866722 -4.344671,0 -7.866722,-3.522051 -7.866722,-7.866722 0,-4.34467 3.522051,-7.866722 7.866722,-7.866722 4.344671,0 7.866722,3.522052 7.866722,7.866722 z" />
    <text
       xml:space="preserve"
       style="font-style:normal;font-variant:normal;font-weight:normal;font-stretch:normal;font-size:32.9822px;font-family:GADAQUALI;-inkscape-font-specification:'GADAQUALI, Normal';font-variant-ligatures:normal;font-variant-caps:normal;font-variant-numeric:normal;font-variant-east-asian:normal;fill:#a6ff65;stroke-width:1.50026"
       x="56.898403"
       y="36.709995"
       id="text361"><tspan
         sodipodi:role="line"
         id="tspan359"
         style="font-style:normal;font-variant:normal;font-weight:normal;font-stretch:normal;font-size:32.9822px;font-family:GADAQUALI;-inkscape-font-specification:'GADAQUALI, Normal';font-variant-ligatures:normal;font-variant-caps:normal;font-variant-numeric:normal;font-variant-east-asian:normal;stroke-width:1.50026"
         x="56.898403"
         y="36.709995">Pop Circle</tspan></text>
  </g>
</svg>
