<?xml version="1.0" encoding="UTF-8" standalone="no"?>
<!-- Created with Inkscape (http://www.inkscape.org/) -->

<svg
   version="1.1"
   id="svg2"
   width="512"
   height="512"
   viewBox="0 0 512 512"
   sodipodi:docname="project_icon.svg"
   inkscape:version="1.2.2 (b0a8486541, 2022-12-01)"
   xmlns:inkscape="http://www.inkscape.org/namespaces/inkscape"
   xmlns:sodipodi="http://sodipodi.sourceforge.net/DTD/sodipodi-0.dtd"
   xmlns="http://www.w3.org/2000/svg"
   xmlns:svg="http://www.w3.org/2000/svg">
  <defs
     id="defs6">
    <clipPath
       clipPathUnits="userSpaceOnUse"
       id="clipPath18">
      <path
         d="M 0.5,0.5 H 511.499 V 511.499 H 0.5 Z"
         id="path16" />
    </clipPath>
    <radialGradient
       fx="0"
       fy="0"
       cx="0"
       cy="0"
       r="1"
       gradientUnits="userSpaceOnUse"
       gradientTransform="matrix(259.44308,0,0,-251.7314,256,256)"
       spreadMethod="pad"
       id="radialGradient34">
      <stop
         style="stop-opacity:0;stop-color:#ffffff"
         offset="0"
         id="stop28" />
      <stop
         style="stop-opacity:0.8;stop-color:#ffffff"
         offset="0.54501556"
         id="stop30" />
      <stop
         style="stop-opacity:0.8;stop-color:#ffffff"
         offset="1"
         id="stop32" />
    </radialGradient>
    <mask
       maskUnits="userSpaceOnUse"
       x="0"
       y="0"
       width="1"
       height="1"
       id="mask36">
      <g
         id="g46">
        <g
           id="g44">
          <g
             id="g42">
            <g
               id="g40">
              <path
                 d="M -32768,32767 H 32767 V -32768 H -32768 Z"
                 style="fill:url(#radialGradient34);stroke:none"
                 id="path38" />
            </g>
          </g>
        </g>
      </g>
    </mask>
    <radialGradient
       fx="0"
       fy="0"
       cx="0"
       cy="0"
       r="1"
       gradientUnits="userSpaceOnUse"
       gradientTransform="matrix(259.44308,0,0,-251.7314,256,256)"
       spreadMethod="pad"
       id="radialGradient58">
      <stop
         style="stop-opacity:1;stop-color:#ffffff"
         offset="0"
         id="stop52" />
      <stop
         style="stop-opacity:1;stop-color:#000000"
         offset="0.54501556"
         id="stop54" />
      <stop
         style="stop-opacity:1;stop-color:#000000"
         offset="1"
         id="stop56" />
    </radialGradient>
    <clipPath
       clipPathUnits="userSpaceOnUse"
       id="clipPath70">
      <path
         d="M 0,512 H 512 V 0 H 0 Z"
         id="path68" />
    </clipPath>
    <clipPath
       clipPathUnits="userSpaceOnUse"
       id="clipPath80">
      <path
         d="M 0,512 H 512 V 0 H 0 Z"
         id="path78" />
    </clipPath>
    <clipPath
       clipPathUnits="userSpaceOnUse"
       id="clipPath88">
      <path
         d="M 123,389 H 389 V 123 H 123 Z"
         id="path86" />
    </clipPath>
    <clipPath
       clipPathUnits="userSpaceOnUse"
       id="clipPath104">
      <path
         d="M 0,512 H 512 V 0 H 0 Z"
         id="path102" />
    </clipPath>
  </defs>
  <sodipodi:namedview
     id="namedview4"
     pagecolor="#505050"
     bordercolor="#eeeeee"
     borderopacity="1"
     inkscape:showpageshadow="0"
     inkscape:pageopacity="0"
     inkscape:pagecheckerboard="0"
     inkscape:deskcolor="#505050"
     showgrid="false"
     inkscape:zoom="1.0813762"
     inkscape:cx="321.81216"
     inkscape:cy="457.75006"
     inkscape:window-width="1366"
     inkscape:window-height="703"
     inkscape:window-x="0"
     inkscape:window-y="37"
     inkscape:window-maximized="1"
     inkscape:current-layer="g10">
    <inkscape:page
       x="0"
       y="0"
       id="page8"
       width="512"
       height="512"
       inkscape:export-filename="project_icon.png"
       inkscape:export-xdpi="96"
       inkscape:export-ydpi="96" />
  </sodipodi:namedview>
  <g
     id="g10"
     inkscape:groupmode="layer"
     inkscape:label="Page 1"
     transform="matrix(1.3333333,0,0,-1.3333333,0,682.66667)">
    <path
       d="M 384.00001,128.00001 H -3.9999891e-8 V 512 H 384.00001 Z"
       style="fill:#1c1c1c;fill-opacity:1;stroke:none;stroke-width:15.6098;stroke-linecap:butt;stroke-linejoin:miter;stroke-miterlimit:10;stroke-dasharray:none;stroke-opacity:1"
       id="path72" />
    <path
       d="M 0,128.00001 H 384.00001 V 512 H 0 Z M 0.75000002,511.25 H 383.25001 V 128.75001 H 0.75000002 Z"
       style="fill:#000000;fill-opacity:1;fill-rule:nonzero;stroke:none;stroke-width:0.75"
       id="path62" />
    <circle
       style="fill:#f45a65;stroke-width:2.18339;fill-opacity:1"
       id="path603"
       cx="192"
       cy="-320"
       r="136.08257"
       transform="scale(1,-1)" />
    <g
       id="g64"
       transform="matrix(0.75000002,0,0,0.74999999,0,128.00001)">
      <g
         id="g66"
         clip-path="url(#clipPath70)" />
    </g>
    <g
       id="g98"
       style="fill:#ffe683;fill-opacity:1"
       transform="matrix(0.75000002,0,0,0.74999999,0,128.00001)">
      <g
         id="g100"
         clip-path="url(#clipPath104)"
         style="fill:#ffe683;fill-opacity:1">
        <g
           id="g106"
           transform="translate(257.4707,293.8208)"
           style="fill:#ffe683;fill-opacity:1">
          <path
             d="m 0,0 c -18.929,0 -34.33,-15.399 -34.33,-34.328 0,-18.929 15.401,-34.329 34.33,-34.329 18.929,0 34.329,15.4 34.329,34.329 C 34.329,-15.399 18.929,0 0,0 m 0,-73.835 c -21.785,0 -39.508,17.722 -39.508,39.507 0,21.785 17.723,39.507 39.508,39.507 21.784,0 39.508,-17.722 39.508,-39.507 0,-21.785 -17.724,-39.507 -39.508,-39.507"
             style="fill:#ffe683;fill-opacity:1;fill-rule:nonzero;stroke:none"
             id="path108" />
        </g>
        <g
           id="g110"
           transform="translate(316.9141,189.4404)"
           style="fill:#ffe683;fill-opacity:1">
          <path
             d="m 0,0 v 14.134 c 0,3.305 0.931,6.274 2.831,8.431 1.88,2.138 4.731,3.465 8.531,3.465 7.601,0 12.155,-5.285 12.155,-11.896 v -65.758 c 0,-5.939 -0.991,-11.461 -2.297,-16.172 -3.622,-13.163 -5.621,-22.21 -6.176,-34.265 -0.218,-4.454 -0.039,-8.947 0.476,-13.38 l 0.019,-0.12 c 0.436,-3.859 -1.584,-7.66 -5.364,-9.718 -6.137,-3.385 -17.499,-7.502 -36.343,-7.502 -19.953,0 -30.761,5.027 -36.046,8.808 -2.771,1.959 -4.374,4.91 -4.374,8.017 v 0.06 c -0.456,5.779 -0.891,8.452 -1.762,11.341 -3.068,10.235 -2.079,10.412 -11.066,22.744 -6.848,9.403 -9.58,29.969 -14.825,38.6 l -26.743,31.374 c -3.978,4.81 -5.214,11.49 2.173,17.599 6.85,5.665 13.465,1.443 16.592,-1.19 l 30.365,-28.999 v 96.103 c 0,3.305 1.346,6.295 3.504,8.472 2.177,2.158 5.166,3.504 8.472,3.504 6.473,0 11.738,-5.147 11.956,-11.56 V 0 h 0.02 l -0.02,29.722 c 0,6.614 5.361,11.976 11.976,11.976 6.615,0 11.976,-5.362 11.976,-11.976 L -23.951,0 v 22.249 c 0,6.611 5.364,11.976 11.975,11.976 3.306,0 6.295,-1.346 8.472,-3.504 C -1.346,28.544 0,25.555 0,22.249 v -8.115 z"
             style="fill:#ffe683;fill-opacity:1;fill-rule:nonzero;stroke:none"
             id="path112" />
        </g>
      </g>
    </g>
  </g>
</svg>
