<?xml version="1.0" encoding="UTF-8" standalone="no"?>
<svg
   version="1.0"
   width="64px"
   height="64px"
   viewBox="0 0 128 128"
   xml:space="preserve"
   id="svg8"
   sodipodi:docname="loading_icon_middle.svg"
   inkscape:version="1.2.2 (b0a8486541, 2022-12-01)"
   xmlns:inkscape="http://www.inkscape.org/namespaces/inkscape"
   xmlns:sodipodi="http://sodipodi.sourceforge.net/DTD/sodipodi-0.dtd"
   xmlns="http://www.w3.org/2000/svg"
   xmlns:svg="http://www.w3.org/2000/svg"><defs
   id="defs12" /><sodipodi:namedview
   id="namedview10"
   pagecolor="#505050"
   bordercolor="#eeeeee"
   borderopacity="1"
   inkscape:showpageshadow="0"
   inkscape:pageopacity="0"
   inkscape:pagecheckerboard="0"
   inkscape:deskcolor="#505050"
   showgrid="false"
   inkscape:zoom="5.7673397"
   inkscape:cx="25.488355"
   inkscape:cy="37.105496"
   inkscape:window-width="1366"
   inkscape:window-height="703"
   inkscape:window-x="0"
   inkscape:window-y="37"
   inkscape:window-maximized="1"
   inkscape:current-layer="svg8" /><path
   fill="#000000"
   d="M 111.708,49 A 50.116,50.116 0 0 0 79,16.292 V 1.785 A 64.076,64.076 0 0 1 126.215,49 Z M 49,16.292 A 50.114,50.114 0 0 0 16.292,49 H 1.785 A 64.075,64.075 0 0 1 49,1.785 Z M 16.292,79 A 50.116,50.116 0 0 0 49,111.708 v 14.507 A 64.076,64.076 0 0 1 1.785,79 Z M 79,111.708 A 50.118,50.118 0 0 0 111.708,79 h 14.507 A 64.078,64.078 0 0 1 79,126.215 Z"
   id="path2"
   style="display:none;fill:#ffffff;fill-opacity:1"><animateTransform
     attributeName="transform"
     type="rotate"
     from="0 64 64"
     to="-90 64 64"
     dur="1800ms"
     repeatCount="indefinite" /></path>
  <path
   fill="#000000"
   d="m 96.971,53.633 a 34.634,34.634 0 0 0 -22.6,-22.6 V 21 A 44.283,44.283 0 0 1 107,53.633 Z m -43.338,-22.6 a 34.634,34.634 0 0 0 -22.6,22.6 H 21 A 44.283,44.283 0 0 1 53.633,21 v 10.029 z m -22.6,43.338 a 34.634,34.634 0 0 0 22.6,22.6 V 107 A 44.283,44.283 0 0 1 21,74.367 h 10.029 z m 43.338,22.6 a 34.634,34.634 0 0 0 22.6,-22.6 H 107 A 44.283,44.283 0 0 1 74.367,107 V 96.971 Z"
   id="path4"
   style="display:inline;fill:#ffffff;fill-opacity:1"><animateTransform
     attributeName="transform"
     type="rotate"
     from="0 64 64"
     to="90 64 64"
     dur="1800ms"
     repeatCount="indefinite" /></path>
  <path
   fill="#000000"
   d="M 85.47,57.25 A 22.552,22.552 0 0 0 70.75,42.53 V 36 A 28.836,28.836 0 0 1 92,57.25 Z M 57.25,42.53 A 22.552,22.552 0 0 0 42.53,57.25 H 36 A 28.836,28.836 0 0 1 57.25,36 Z M 42.53,70.75 A 22.552,22.552 0 0 0 57.25,85.47 V 92 A 28.836,28.836 0 0 1 36,70.75 Z M 70.75,85.47 A 22.552,22.552 0 0 0 85.47,70.75 H 92 A 28.836,28.836 0 0 1 70.75,92 Z"
   id="path6"
   style="display:none;fill:#ffffff;fill-opacity:1"><animateTransform
     attributeName="transform"
     type="rotate"
     from="0 64 64"
     to="-90 64 64"
     dur="1800ms"
     repeatCount="indefinite" /></path></svg>
