<?xml version="1.0" encoding="UTF-8" standalone="no"?>
<svg
   class="svg-icon"
   style="width: 1em; height: 1em;vertical-align: middle;fill: #ffffff;overflow: hidden;"
   viewBox="0 0 1024 1024"
   version="1.1"
   id="svg6"
   sodipodi:docname="about_button.svg"
   inkscape:version="1.2.2 (b0a8486541, 2022-12-01)"
   xmlns:inkscape="http://www.inkscape.org/namespaces/inkscape"
   xmlns:sodipodi="http://sodipodi.sourceforge.net/DTD/sodipodi-0.dtd"
   xmlns="http://www.w3.org/2000/svg"
   xmlns:svg="http://www.w3.org/2000/svg">
  <defs
     id="defs10" />
  <sodipodi:namedview
     id="namedview8"
     pagecolor="#505050"
     bordercolor="#eeeeee"
     borderopacity="1"
     inkscape:showpageshadow="0"
     inkscape:pageopacity="0"
     inkscape:pagecheckerboard="0"
     inkscape:deskcolor="#505050"
     showgrid="false"
     inkscape:zoom="0.50976562"
     inkscape:cx="472.76628"
     inkscape:cy="606.16092"
     inkscape:window-width="1366"
     inkscape:window-height="703"
     inkscape:window-x="0"
     inkscape:window-y="37"
     inkscape:window-maximized="1"
     inkscape:current-layer="svg6" />
  <path
     d="m 511.51393,63.894216 c -114.5315,0 -229.06198,43.508934 -316.72043,131.167384 -174.676323,174.67633 -174.676323,458.76455 0,633.44087 87.65845,87.65845 202.18893,131.16739 316.72043,131.16739 114.5315,0 229.063,-43.50894 316.72043,-131.16739 174.67634,-174.67632 174.67634,-458.76454 0,-633.44087 C 740.57693,107.40315 626.04543,63.894216 511.51393,63.894216 Z m 0,44.789094 c 52.46696,0 103.65375,10.23715 151.6417,29.43233 49.90767,20.47533 94.69573,49.90766 133.08609,88.93759 39.02992,38.39035 68.46328,83.17944 88.93758,133.08608 19.19518,47.98795 29.43234,99.17475 29.43234,151.6417 0,52.46696 -10.23716,103.65376 -29.43234,151.6417 -20.4743,49.90767 -49.90766,94.69573 -88.93758,133.08609 -38.39036,39.02992 -83.17945,68.46328 -133.08609,88.93759 -47.98795,19.19518 -99.17475,29.43233 -151.6417,29.43233 -52.46696,0 -103.65376,-10.23715 -151.6417,-29.43233 -49.90767,-20.47534 -94.69573,-49.90767 -133.08609,-88.93759 -39.02992,-38.39035 -68.46328,-83.17944 -88.93759,-133.08609 -19.19517,-47.98794 -29.43233,-99.17474 -29.43233,-151.6417 0,-52.46695 10.23716,-103.65375 29.43233,-151.6417 20.47534,-49.90766 49.90767,-94.69573 88.93759,-133.08608 38.39036,-39.02993 83.17945,-68.46328 133.08609,-88.93759 47.98795,-19.19518 99.17474,-29.43233 151.6417,-29.43233 z"
     id="path2"
     style="display:none" />
  <path
     d="M511.51393 674.300456c-18.555611 0-34.55091 15.355733-34.55091 34.55091 0 18.555611 15.996322 33.911344 34.55091 33.911344 19.195178 0 34.55091-15.355733 34.55091-33.911344C546.065863 689.657212 530.709107 674.300456 511.51393 674.300456zM512.154519 280.799314c-42.2298 0-76.141144 10.877745-101.734032 33.911344-25.593911 22.394033-41.589211 55.026244-46.707788 97.895611l58.225099 7.0383c4.479011-31.991622 15.355733-55.665811 31.352055-70.381977 15.996322-15.355733 35.831067-22.394033 59.505255-22.394033 24.953322 0 46.068222 8.317433 63.343677 24.953322 16.635889 15.996322 24.953322 35.1915 24.953322 57.585533 0 11.517311-2.559289 23.034623-8.317433 33.271778-5.758144 10.237155-18.555611 23.674189-37.750789 40.949644-19.834744 17.275455-33.271778 30.072923-40.949644 39.029922-9.597589 12.156878-17.275455 24.313755-21.754466 36.470633-6.398734 15.996322-9.597589 35.1915-9.597589 56.945967l0.639566 17.275455 53.746088 0c0.639566-22.394033 1.919722-39.029922 4.479011-48.627511 3.198855-10.237155 7.0383-19.195178 12.796444-26.873044 5.758144-7.677866 17.275455-19.834744 35.831067-35.831067 26.873044-24.313755 45.428655-44.789089 55.026244-61.424978 8.958022-16.635889 14.0766-35.1915 14.0766-55.026244 0-34.55091-13.437034-63.984267-40.310078-88.298022C592.773651 292.956192 556.942585 280.799314 512.154519 280.799314z"
     id="path4" />
</svg>
