<?xml version="1.0" encoding="UTF-8" standalone="no"?>
<svg
   viewBox="0 0 50 50"
   width="50px"
   height="50px"
   version="1.1"
   id="svg4"
   sodipodi:docname="checkmark.svg"
   inkscape:version="1.2.2 (b0a8486541, 2022-12-01)"
   xmlns:inkscape="http://www.inkscape.org/namespaces/inkscape"
   xmlns:sodipodi="http://sodipodi.sourceforge.net/DTD/sodipodi-0.dtd"
   xmlns="http://www.w3.org/2000/svg"
   xmlns:svg="http://www.w3.org/2000/svg">
  <defs
     id="defs8" />
  <sodipodi:namedview
     id="namedview6"
     pagecolor="#505050"
     bordercolor="#eeeeee"
     borderopacity="1"
     inkscape:showpageshadow="0"
     inkscape:pageopacity="0"
     inkscape:pagecheckerboard="0"
     inkscape:deskcolor="#505050"
     showgrid="false"
     inkscape:zoom="10.44"
     inkscape:cx="25"
     inkscape:cy="25"
     inkscape:window-width="1366"
     inkscape:window-height="703"
     inkscape:window-x="0"
     inkscape:window-y="37"
     inkscape:window-maximized="1"
     inkscape:current-layer="svg4" />
  <path
     d="M 42.875 8.625 C 42.84375 8.632813 42.8125 8.644531 42.78125 8.65625 C 42.519531 8.722656 42.292969 8.890625 42.15625 9.125 L 21.71875 40.8125 L 7.65625 28.125 C 7.410156 27.8125 7 27.675781 6.613281 27.777344 C 6.226563 27.878906 5.941406 28.203125 5.882813 28.597656 C 5.824219 28.992188 6.003906 29.382813 6.34375 29.59375 L 21.25 43.09375 C 21.46875 43.285156 21.761719 43.371094 22.050781 43.328125 C 22.339844 43.285156 22.59375 43.121094 22.75 42.875 L 43.84375 10.1875 C 44.074219 9.859375 44.085938 9.425781 43.875 9.085938 C 43.664063 8.746094 43.269531 8.566406 42.875 8.625 Z"
     id="path2"
     style="fill:#ffffff" />
</svg>
