<?xml version="1.0" encoding="UTF-8" standalone="no"?>
<!-- Uploaded to: SVG Repo, www.svgrepo.com, Generator: SVG Repo Mixer Tools -->

<svg
   fill="#000000"
   height="800px"
   width="800px"
   version="1.1"
   id="Layer_1"
   viewBox="0 0 383.748 383.748"
   xml:space="preserve"
   sodipodi:docname="refresh_icon.svg"
   inkscape:version="1.2.2 (b0a8486541, 2022-12-01)"
   xmlns:inkscape="http://www.inkscape.org/namespaces/inkscape"
   xmlns:sodipodi="http://sodipodi.sourceforge.net/DTD/sodipodi-0.dtd"
   xmlns="http://www.w3.org/2000/svg"
   xmlns:svg="http://www.w3.org/2000/svg"><defs
   id="defs11">
	
	
</defs><sodipodi:namedview
   id="namedview9"
   pagecolor="#505050"
   bordercolor="#eeeeee"
   borderopacity="1"
   inkscape:showpageshadow="0"
   inkscape:pageopacity="0"
   inkscape:pagecheckerboard="0"
   inkscape:deskcolor="#505050"
   showgrid="false"
   inkscape:zoom="0.32625"
   inkscape:cx="358.62069"
   inkscape:cy="554.78927"
   inkscape:window-width="1366"
   inkscape:window-height="703"
   inkscape:window-x="0"
   inkscape:window-y="37"
   inkscape:window-maximized="1"
   inkscape:current-layer="Layer_1" />
<path
   d="M 82.836566,110.09136 C 106.59639,76.187237 145.94723,55.15795 188.04719,55.15795 c 70.72797,0 128.27029,57.54148 128.27029,128.27029 h 25.33751 c 0,-84.699911 -68.90788,-153.607799 -153.6078,-153.607799 -29.59252,0 -58.32779,8.436546 -83.09942,24.398332 C 89.252023,64.331817 75.634801,77.14415 64.634944,91.975883 L 31.577942,59.077662 v 95.746218 h 96.206518 z"
   id="path2"
   style="stroke-width:0.844584;stroke:none;stroke-opacity:1;fill:#ffffff;fill-opacity:1" /><path
   d="m 352.17006,228.92427 h -96.20652 l 44.9479,44.73337 c -23.75983,33.90328 -63.11067,54.93341 -105.21063,54.93341 -70.72881,0 -128.270294,-57.54148 -128.270294,-128.27029 H 42.093008 c 0,84.69991 68.907892,153.6078 153.607802,153.6078 29.59252,0 58.32863,-8.43655 83.09943,-24.39833 15.69574,-10.11389 29.31296,-22.92622 40.31282,-37.75796 l 33.05615,32.89822 v -95.74622 z"
   id="path4"
   style="stroke-width:0.844584;stroke:none;stroke-opacity:1;fill:#ffffff;fill-opacity:1" />
</svg>
