<?xml version="1.0" encoding="UTF-8" standalone="no"?>
<!-- Created with Inkscape (http://www.inkscape.org/) -->

<svg
   width="1955"
   height="176"
   viewBox="0 0 517.26029 46.566758"
   version="1.1"
   id="svg5"
   xml:space="preserve"
   inkscape:version="1.2.2 (b0a8486541, 2022-12-01)"
   sodipodi:docname="top_panel.svg"
   xmlns:inkscape="http://www.inkscape.org/namespaces/inkscape"
   xmlns:sodipodi="http://sodipodi.sourceforge.net/DTD/sodipodi-0.dtd"
   xmlns="http://www.w3.org/2000/svg"
   xmlns:svg="http://www.w3.org/2000/svg"><sodipodi:namedview
     id="namedview7"
     pagecolor="#505050"
     bordercolor="#eeeeee"
     borderopacity="1"
     inkscape:showpageshadow="0"
     inkscape:pageopacity="0"
     inkscape:pagecheckerboard="0"
     inkscape:deskcolor="#505050"
     inkscape:document-units="mm"
     showgrid="false"
     showguides="true"
     inkscape:zoom="1.860101"
     inkscape:cx="84.941624"
     inkscape:cy="82.253598"
     inkscape:window-width="1366"
     inkscape:window-height="703"
     inkscape:window-x="0"
     inkscape:window-y="37"
     inkscape:window-maximized="1"
     inkscape:current-layer="layer1"><sodipodi:guide
       position="250.24245,-60.450113"
       orientation="1,0"
       id="guide4024"
       inkscape:locked="false" /></sodipodi:namedview><defs
     id="defs2" /><g
     inkscape:label="Слой 1"
     inkscape:groupmode="layer"
     id="layer1"><rect
       style="display:none;fill:#1c1c1c;fill-opacity:1;stroke-width:0.194"
       id="rect234"
       width="508"
       height="285.75"
       x="0"
       y="0"
       ry="2.7068567" /><path
       style="fill:#d9d9d9;fill-opacity:1;stroke-width:0.400477"
       d="m 173.93949,28.309166 c -7.09611,-8.440895 -13.14232,-15.584647 -13.43602,-15.875 -0.42411,-0.419276 -3.44646,-0.527919 -14.68616,-0.527919 H 131.66517 L 66.824779,18.454684 C 31.162576,22.056325 1.5377921,25.003122 0.99192229,25.003122 H -5.7059659e-4 V 12.50156 0 H 258.63015 517.26086 v 12.50156 12.501562 h -0.99226 c -0.54572,0 -30.05085,-2.946599 -65.56693,-6.547997 l -64.57466,-6.547997 -14.21603,-4.4e-4 c -12.595,-3.9e-4 -14.29105,0.07324 -14.87394,0.645695 -0.36186,0.355373 -6.85973,7.499124 -14.43972,15.875 l -13.7818,15.228864 H 257.82851 186.8415 Z"
       id="path4876" /></g></svg>
